<svg width="22" height="13" viewBox="0 0 22 13" fill="none" xmlns="http://www.w3.org/2000/svg">
<path d="M4.33636 0.94C4.37236 0.82 4.45036 0.76 4.57036 0.76H6.22636C6.34636 0.76 6.42436 0.82 6.46036 0.94L10.6004 12.82C10.6364 12.94 10.5944 13 10.4744 13H8.71036C8.59036 13 8.51236 12.94 8.47636 12.82L7.66636 10.444H3.05836L2.24836 12.82C2.21236 12.94 2.13436 13 2.01436 13H0.268359C0.148359 13 0.106359 12.94 0.142359 12.82L4.33636 0.94ZM7.01836 8.554L5.39836 3.802H5.34436L3.70636 8.554H7.01836ZM19.2257 13C19.0937 13 19.0037 12.94 18.9557 12.82L16.6157 8.05H14.5097C14.4377 8.05 14.4017 8.086 14.4017 8.158V12.82C14.4017 12.94 14.3417 13 14.2217 13H12.4577C12.3377 13 12.2777 12.94 12.2777 12.82V0.94C12.2777 0.82 12.3377 0.76 12.4577 0.76H17.1917C17.7557 0.76 18.2717 0.85 18.7397 1.03C19.2197 1.21 19.6337 1.462 19.9817 1.786C20.3297 2.098 20.5997 2.482 20.7917 2.938C20.9957 3.382 21.0977 3.874 21.0977 4.414C21.0977 5.218 20.8877 5.914 20.4677 6.502C20.0477 7.09 19.4837 7.516 18.7757 7.78L21.3497 12.766C21.3857 12.826 21.3857 12.88 21.3497 12.928C21.3257 12.976 21.2837 13 21.2237 13H19.2257ZM17.1197 6.142C17.6837 6.142 18.1337 5.986 18.4697 5.674C18.8177 5.362 18.9917 4.942 18.9917 4.414C18.9917 3.874 18.8177 3.448 18.4697 3.136C18.1337 2.824 17.6837 2.668 17.1197 2.668H14.5097C14.4377 2.668 14.4017 2.704 14.4017 2.776V6.034C14.4017 6.106 14.4377 6.142 14.5097 6.142H17.1197Z" fill="white"/>
</svg>
