<svg width="238" height="25" viewBox="0 0 238 25" fill="none" xmlns="http://www.w3.org/2000/svg">
<path d="M8.522 2.016C6.90067 2.54933 5.642 3.43467 4.746 4.672C3.87133 5.888 3.434 7.40267 3.434 9.216C3.434 10.0267 3.50867 10.5813 3.658 10.88C3.80733 11.1787 3.882 11.36 3.882 11.424C1.59933 11.424 0.458 10.4533 0.458 8.512C0.458 7.18933 0.959333 5.86667 1.962 4.544C2.986 3.2 4.28733 2.112 5.866 1.28C7.466 0.426665 9.05533 -1.90735e-06 10.634 -1.90735e-06C11.4233 -1.90735e-06 12.234 0.149331 13.066 0.447998L12.33 17.312L19.37 0.447998H23.978L20.618 24H16.01L18.058 9.632L12.042 24H7.658L8.298 9.568L2.954 24H0.394L8.522 2.016ZM27.2775 24.192C26.0615 24.192 25.0482 23.776 24.2375 22.944C23.4268 22.112 23.0215 20.8107 23.0215 19.04C23.0215 17.4613 23.3308 15.808 23.9495 14.08C24.5895 12.3307 25.5282 10.8587 26.7655 9.664C28.0242 8.448 29.5175 7.84 31.2455 7.84C32.1202 7.84 32.7708 7.98933 33.1975 8.288C33.6242 8.58667 33.8375 8.98133 33.8375 9.472V9.696L34.1895 8H38.7975L36.4935 18.88C36.4082 19.2 36.3655 19.5413 36.3655 19.904C36.3655 20.8213 36.8028 21.28 37.6775 21.28C38.2748 21.28 38.7868 21.0027 39.2135 20.448C39.6615 19.8933 40.0135 19.168 40.2695 18.272H41.6135C40.8242 20.576 39.8428 22.144 38.6695 22.976C37.5175 23.7867 36.3548 24.192 35.1815 24.192C34.2855 24.192 33.5602 23.9467 33.0055 23.456C32.4722 22.944 32.1522 22.208 32.0455 21.248C31.4268 22.1227 30.7335 22.8373 29.9655 23.392C29.2188 23.9253 28.3228 24.192 27.2775 24.192ZM29.3575 21.088C29.8908 21.088 30.4135 20.8427 30.9255 20.352C31.4588 19.84 31.8215 19.1467 32.0135 18.272L33.5495 11.04C33.5495 10.7627 33.4428 10.496 33.2295 10.24C33.0162 9.96267 32.6855 9.824 32.2375 9.824C31.3842 9.824 30.6162 10.3253 29.9335 11.328C29.2508 12.3093 28.7175 13.504 28.3335 14.912C27.9495 16.2987 27.7575 17.5253 27.7575 18.592C27.7575 19.6587 27.9068 20.3413 28.2055 20.64C28.5255 20.9387 28.9095 21.088 29.3575 21.088ZM42.4573 8H47.0653L46.6493 9.984C47.3746 9.344 48.0253 8.85333 48.6013 8.512C49.1986 8.17067 49.8386 8 50.5213 8C51.2039 8 51.7373 8.23467 52.1213 8.704C52.5266 9.17333 52.7293 9.73867 52.7293 10.4C52.7293 11.0187 52.5266 11.5627 52.1213 12.032C51.7159 12.5013 51.1506 12.736 50.4253 12.736C49.9559 12.736 49.6359 12.6293 49.4653 12.416C49.3159 12.1813 49.1986 11.8507 49.1133 11.424C49.0493 11.1467 48.9853 10.944 48.9213 10.816C48.8573 10.688 48.7399 10.624 48.5693 10.624C48.1213 10.624 47.7373 10.72 47.4173 10.912C47.1186 11.0827 46.7239 11.392 46.2333 11.84L43.6733 24H39.0652L42.4573 8ZM57.6565 6.272C56.9525 6.272 56.3552 6.02667 55.8645 5.536C55.3738 5.04533 55.1285 4.448 55.1285 3.744C55.1285 3.04 55.3738 2.44267 55.8645 1.952C56.3552 1.44 56.9525 1.184 57.6565 1.184C58.3605 1.184 58.9578 1.44 59.4485 1.952C59.9605 2.44267 60.2165 3.04 60.2165 3.744C60.2165 4.448 59.9605 5.04533 59.4485 5.536C58.9578 6.02667 58.3605 6.272 57.6565 6.272ZM55.4805 24.192C54.4565 24.192 53.6245 23.872 52.9845 23.232C52.3658 22.592 52.0565 21.632 52.0565 20.352C52.0565 19.8187 52.1418 19.1253 52.3125 18.272L54.4885 8H59.0965L56.7925 18.88C56.7072 19.2 56.6645 19.5413 56.6645 19.904C56.6645 20.3307 56.7605 20.64 56.9525 20.832C57.1658 21.0027 57.5072 21.088 57.9765 21.088C58.5952 21.088 59.1712 20.832 59.7045 20.32C60.2378 19.7867 60.6218 19.104 60.8565 18.272H62.2005C61.4112 20.576 60.3978 22.144 59.1605 22.976C57.9232 23.7867 56.6965 24.192 55.4805 24.192ZM72.3958 24.192C71.0944 24.192 70.1344 23.8507 69.5158 23.168C68.9184 22.464 68.6198 21.6 68.6198 20.576C68.6198 20.128 68.6731 19.6267 68.7798 19.072C68.8864 18.496 68.9931 17.9413 69.0998 17.408C69.2278 16.8747 69.3131 16.5333 69.3558 16.384C69.5264 15.6373 69.6864 14.9013 69.8358 14.176C69.9851 13.4507 70.0598 12.864 70.0598 12.416C70.0598 11.328 69.6758 10.784 68.9078 10.784C68.3531 10.784 67.8624 11.0613 67.4358 11.616C67.0091 12.1493 66.6678 12.8533 66.4118 13.728L64.2358 24H59.6277L63.0198 8H67.6278L67.2758 9.664C68.3424 8.46933 69.5904 7.872 71.0198 7.872C72.1078 7.872 72.9718 8.17067 73.6118 8.768C74.2518 9.36533 74.5718 10.272 74.5718 11.488C74.5718 12.1067 74.4971 12.8 74.3478 13.568C74.1984 14.3147 73.9851 15.232 73.7078 16.32C73.5371 16.9813 73.3771 17.632 73.2278 18.272C73.0998 18.8907 73.0358 19.3813 73.0358 19.744C73.0358 20.1707 73.1318 20.5013 73.3238 20.736C73.5158 20.9707 73.8464 21.088 74.3158 21.088C74.9558 21.088 75.4678 20.864 75.8518 20.416C76.2358 19.9467 76.6198 19.232 77.0037 18.272H78.3478C77.5584 20.6187 76.6411 22.1973 75.5958 23.008C74.5718 23.7973 73.5051 24.192 72.3958 24.192ZM80.84 24.192C79.624 24.192 78.6107 23.776 77.8 22.944C76.9893 22.112 76.584 20.8107 76.584 19.04C76.584 17.4613 76.8933 15.808 77.512 14.08C78.152 12.3307 79.0907 10.8587 80.328 9.664C81.5867 8.448 83.08 7.84 84.808 7.84C85.6827 7.84 86.3333 7.98933 86.76 8.288C87.1867 8.58667 87.4 8.98133 87.4 9.472V9.696L87.752 8H92.36L90.056 18.88C89.9707 19.2 89.928 19.5413 89.928 19.904C89.928 20.3307 90.024 20.64 90.216 20.832C90.4293 21.0027 90.7707 21.088 91.24 21.088C91.5387 21.088 91.7733 21.0453 91.944 20.96C91.4747 22.1547 91.0267 22.9973 90.6 23.488C90.1733 23.9573 89.5547 24.192 88.744 24.192C87.8693 24.192 87.1547 23.936 86.6 23.424C86.0667 22.8907 85.736 22.1547 85.608 21.216C84.3067 23.2 82.7173 24.192 80.84 24.192ZM82.92 21.088C83.4533 21.088 83.976 20.8427 84.488 20.352C85.0213 19.84 85.384 19.1467 85.576 18.272L87.112 11.04C87.112 10.7627 87.0053 10.496 86.792 10.24C86.5787 9.96267 86.248 9.824 85.8 9.824C84.9467 9.824 84.1787 10.3253 83.496 11.328C82.8133 12.3093 82.28 13.504 81.896 14.912C81.512 16.2987 81.32 17.5253 81.32 18.592C81.32 19.6587 81.4693 20.3413 81.768 20.64C82.088 20.9387 82.472 21.088 82.92 21.088ZM112.827 24.544C111.163 24.544 110.331 23.8293 110.331 22.4C110.331 21.9307 110.395 21.3973 110.523 20.8C110.672 20.1813 110.875 19.392 111.131 18.432C111.43 17.4293 111.654 16.576 111.803 15.872C111.952 15.168 112.027 14.5387 112.027 13.984C112.027 12.5333 111.387 11.808 110.107 11.808C109.766 11.808 109.414 11.8507 109.051 11.936L106.491 24H101.883L106.235 3.648L110.971 3.008L109.403 10.4H109.659C110.491 10.4 111.259 10.112 111.963 9.536C112.667 8.96 113.211 8.24533 113.595 7.392C114 6.51733 114.203 5.664 114.203 4.832C114.203 3.85067 113.904 3.05067 113.307 2.432C112.731 1.792 111.856 1.472 110.683 1.472C108.955 1.472 107.44 1.78133 106.139 2.4C104.838 3.01867 103.824 3.91467 103.099 5.088C102.395 6.26133 102.043 7.648 102.043 9.248C102.043 10.0373 102.118 10.592 102.267 10.912C102.416 11.2107 102.491 11.3813 102.491 11.424C101.339 11.424 100.475 11.1893 99.899 10.72C99.3443 10.2293 99.067 9.42933 99.067 8.32C99.067 6.95467 99.6217 5.632 100.731 4.352C101.862 3.05067 103.302 2.00533 105.051 1.216C106.8 0.405332 108.55 -1.90735e-06 110.299 -1.90735e-06C111.899 -1.90735e-06 113.243 0.234665 114.331 0.703999C115.419 1.17333 116.23 1.80267 116.763 2.592C117.296 3.36 117.563 4.20267 117.563 5.12C117.563 6.12267 117.254 7.12533 116.635 8.128C116.016 9.13067 115.174 9.952 114.107 10.592C114.918 10.8267 115.483 11.2213 115.803 11.776C116.144 12.3093 116.315 12.9813 116.315 13.792C116.315 14.4107 116.24 15.072 116.091 15.776C115.942 16.4587 115.728 17.312 115.451 18.336C115.28 18.9973 115.12 19.648 114.971 20.288C114.822 20.928 114.747 21.4613 114.747 21.888C114.747 22.3787 114.854 22.816 115.067 23.2C115.302 23.584 115.611 23.8507 115.995 24C114.694 24.3627 113.638 24.544 112.827 24.544ZM122.67 24.192C121.091 24.192 119.864 23.7867 118.99 22.976C118.115 22.144 117.678 20.8533 117.678 19.104C117.678 17.632 117.966 16.0107 118.542 14.24C119.118 12.4693 120.056 10.944 121.358 9.664C122.659 8.36267 124.312 7.712 126.318 7.712C128.664 7.712 129.838 8.736 129.838 10.784C129.838 11.9787 129.496 13.0773 128.814 14.08C128.131 15.0827 127.224 15.8933 126.094 16.512C124.963 17.1093 123.758 17.4507 122.478 17.536C122.435 18.176 122.414 18.6027 122.414 18.816C122.414 19.8613 122.595 20.576 122.958 20.96C123.32 21.3227 123.907 21.504 124.718 21.504C125.87 21.504 126.851 21.2373 127.662 20.704C128.494 20.1707 129.4 19.36 130.382 18.272H131.47C129.102 22.2187 126.168 24.192 122.67 24.192ZM122.734 16C123.523 15.9573 124.27 15.68 124.974 15.168C125.699 14.656 126.275 14.0053 126.702 13.216C127.15 12.4267 127.374 11.5947 127.374 10.72C127.374 9.84533 127.107 9.408 126.574 9.408C125.806 9.408 125.048 10.08 124.302 11.424C123.576 12.768 123.054 14.2933 122.734 16ZM134.023 24.192C132.999 24.192 132.135 24 131.431 23.616C130.727 23.2107 130.204 22.6987 129.863 22.08C129.522 21.44 129.351 20.7787 129.351 20.096C129.351 19.392 129.522 18.784 129.863 18.272C130.183 17.7387 130.578 17.3547 131.047 17.12C131.879 15.6267 132.604 14.1227 133.223 12.608C133.842 11.072 134.428 9.41867 134.983 7.648L139.719 7.008C139.826 9.73867 140.007 12.6933 140.263 15.872C140.37 17.152 140.423 18.08 140.423 18.656C140.423 19.1467 140.38 19.552 140.295 19.872C141.298 19.296 142.066 18.7627 142.599 18.272H143.943C142.578 19.8507 140.946 21.184 139.047 22.272C138.428 22.9333 137.66 23.424 136.743 23.744C135.847 24.0427 134.94 24.192 134.023 24.192ZM132.999 21.664C133.788 21.664 134.45 21.4293 134.983 20.96C135.516 20.4907 135.783 19.7333 135.783 18.688C135.783 18.048 135.719 17.152 135.591 16C135.378 13.568 135.239 11.936 135.175 11.104C134.663 12.7893 133.799 14.8053 132.583 17.152C133.074 17.408 133.319 17.7813 133.319 18.272C133.319 18.6773 133.18 19.04 132.903 19.36C132.647 19.68 132.316 19.84 131.911 19.84C131.463 19.84 131.175 19.7013 131.047 19.424C131.047 20.192 131.196 20.7573 131.495 21.12C131.815 21.4827 132.316 21.664 132.999 21.664ZM145.762 24.192C144.738 24.192 143.906 23.872 143.266 23.232C142.647 22.592 142.338 21.632 142.338 20.352C142.338 19.8187 142.423 19.1253 142.594 18.272L144.514 9.28H143.458L143.714 8H144.77L145.73 3.584L150.466 2.944L149.378 8H151.298L151.042 9.28H149.122L147.074 18.88C146.988 19.2 146.946 19.5413 146.946 19.904C146.946 20.3307 147.042 20.64 147.234 20.832C147.447 21.0027 147.788 21.088 148.258 21.088C148.876 21.088 149.452 20.832 149.986 20.32C150.519 19.7867 150.903 19.104 151.138 18.272H152.482C151.692 20.576 150.679 22.144 149.442 22.976C148.204 23.7867 146.978 24.192 145.762 24.192ZM154.965 24.192C153.749 24.192 152.736 23.776 151.925 22.944C151.114 22.112 150.709 20.8107 150.709 19.04C150.709 17.4613 151.018 15.808 151.637 14.08C152.277 12.3307 153.216 10.8587 154.453 9.664C155.712 8.448 157.205 7.84 158.933 7.84C159.808 7.84 160.458 7.98933 160.885 8.288C161.312 8.58667 161.525 8.98133 161.525 9.472V9.696L161.877 8H166.485L164.181 18.88C164.096 19.2 164.053 19.5413 164.053 19.904C164.053 20.8213 164.49 21.28 165.365 21.28C165.962 21.28 166.474 21.0027 166.901 20.448C167.349 19.8933 167.701 19.168 167.957 18.272H169.301C168.512 20.576 167.53 22.144 166.357 22.976C165.205 23.7867 164.042 24.192 162.869 24.192C161.973 24.192 161.248 23.9467 160.693 23.456C160.16 22.944 159.84 22.208 159.733 21.248C159.114 22.1227 158.421 22.8373 157.653 23.392C156.906 23.9253 156.01 24.192 154.965 24.192ZM157.045 21.088C157.578 21.088 158.101 20.8427 158.613 20.352C159.146 19.84 159.509 19.1467 159.701 18.272L161.237 11.04C161.237 10.7627 161.13 10.496 160.917 10.24C160.704 9.96267 160.373 9.824 159.925 9.824C159.072 9.824 158.304 10.3253 157.621 11.328C156.938 12.3093 156.405 13.504 156.021 14.912C155.637 16.2987 155.445 17.5253 155.445 18.592C155.445 19.6587 155.594 20.3413 155.893 20.64C156.213 20.9387 156.597 21.088 157.045 21.088ZM171.137 24.192C170.113 24.192 169.281 23.872 168.641 23.232C168.022 22.592 167.713 21.632 167.713 20.352C167.713 19.8187 167.798 19.1253 167.969 18.272L170.145 8H174.753L172.449 18.88C172.385 19.2 172.353 19.4987 172.353 19.776C172.353 20.6507 172.673 21.088 173.313 21.088C173.91 21.088 174.422 20.8427 174.849 20.352C175.275 19.84 175.617 19.1467 175.873 18.272L178.049 8H182.657L180.353 18.88C180.267 19.2 180.225 19.5413 180.225 19.904C180.225 20.3307 180.321 20.64 180.513 20.832C180.726 21.0027 181.067 21.088 181.537 21.088C182.134 21.088 182.646 20.832 183.073 20.32C183.521 19.808 183.873 19.1253 184.129 18.272H185.473C184.683 20.576 183.702 22.144 182.529 22.976C181.377 23.7867 180.214 24.192 179.041 24.192C178.123 24.192 177.387 23.936 176.833 23.424C176.299 22.912 175.979 22.1547 175.873 21.152C175.147 22.3253 174.379 23.1253 173.569 23.552C172.779 23.9787 171.969 24.192 171.137 24.192ZM186.301 8H190.909L190.493 9.984C191.218 9.344 191.869 8.85333 192.445 8.512C193.042 8.17067 193.682 8 194.365 8C195.048 8 195.581 8.23467 195.965 8.704C196.37 9.17333 196.573 9.73867 196.573 10.4C196.573 11.0187 196.37 11.5627 195.965 12.032C195.56 12.5013 194.994 12.736 194.269 12.736C193.8 12.736 193.48 12.6293 193.309 12.416C193.16 12.1813 193.042 11.8507 192.957 11.424C192.893 11.1467 192.829 10.944 192.765 10.816C192.701 10.688 192.584 10.624 192.413 10.624C191.965 10.624 191.581 10.72 191.261 10.912C190.962 11.0827 190.568 11.392 190.077 11.84L187.517 24H182.909L186.301 8ZM199.996 24.192C198.78 24.192 197.767 23.776 196.956 22.944C196.146 22.112 195.74 20.8107 195.74 19.04C195.74 17.4613 196.05 15.808 196.668 14.08C197.308 12.3307 198.247 10.8587 199.484 9.664C200.743 8.448 202.236 7.84 203.964 7.84C204.839 7.84 205.49 7.98933 205.916 8.288C206.343 8.58667 206.556 8.98133 206.556 9.472V9.696L206.908 8H211.516L209.212 18.88C209.127 19.2 209.084 19.5413 209.084 19.904C209.084 20.8213 209.522 21.28 210.396 21.28C210.994 21.28 211.506 21.0027 211.932 20.448C212.38 19.8933 212.732 19.168 212.988 18.272H214.332C213.543 20.576 212.562 22.144 211.388 22.976C210.236 23.7867 209.074 24.192 207.9 24.192C207.004 24.192 206.279 23.9467 205.724 23.456C205.191 22.944 204.871 22.208 204.764 21.248C204.146 22.1227 203.452 22.8373 202.684 23.392C201.938 23.9253 201.042 24.192 199.996 24.192ZM202.076 21.088C202.61 21.088 203.132 20.8427 203.644 20.352C204.178 19.84 204.54 19.1467 204.732 18.272L206.268 11.04C206.268 10.7627 206.162 10.496 205.948 10.24C205.735 9.96267 205.404 9.824 204.956 9.824C204.103 9.824 203.335 10.3253 202.652 11.328C201.97 12.3093 201.436 13.504 201.052 14.912C200.668 16.2987 200.476 17.5253 200.476 18.592C200.476 19.6587 200.626 20.3413 200.924 20.64C201.244 20.9387 201.628 21.088 202.076 21.088ZM224.552 24.192C223.251 24.192 222.291 23.8507 221.672 23.168C221.075 22.464 220.776 21.6 220.776 20.576C220.776 20.128 220.829 19.6267 220.936 19.072C221.043 18.496 221.149 17.9413 221.256 17.408C221.384 16.8747 221.469 16.5333 221.512 16.384C221.683 15.6373 221.843 14.9013 221.992 14.176C222.141 13.4507 222.216 12.864 222.216 12.416C222.216 11.328 221.832 10.784 221.064 10.784C220.509 10.784 220.019 11.0613 219.592 11.616C219.165 12.1493 218.824 12.8533 218.568 13.728L216.392 24H211.784L215.176 8H219.784L219.432 9.664C220.499 8.46933 221.747 7.872 223.176 7.872C224.264 7.872 225.128 8.17067 225.768 8.768C226.408 9.36533 226.728 10.272 226.728 11.488C226.728 12.1067 226.653 12.8 226.504 13.568C226.355 14.3147 226.141 15.232 225.864 16.32C225.693 16.9813 225.533 17.632 225.384 18.272C225.256 18.8907 225.192 19.3813 225.192 19.744C225.192 20.1707 225.288 20.5013 225.48 20.736C225.672 20.9707 226.003 21.088 226.472 21.088C227.112 21.088 227.624 20.864 228.008 20.416C228.392 19.9467 228.776 19.232 229.16 18.272H230.504C229.715 20.6187 228.797 22.1973 227.752 23.008C226.728 23.7973 225.661 24.192 224.552 24.192ZM232.164 24.192C231.076 24.192 230.266 23.8613 229.732 23.2C229.22 22.5387 228.964 21.664 228.964 20.576C228.964 20.0213 229.028 19.456 229.156 18.88L231.204 9.28H230.148L230.404 8H231.46L232.42 3.584L237.156 2.944C236.964 3.75467 236.858 4.23467 236.836 4.384C236.687 4.98133 236.431 6.18667 236.068 8H237.988L237.732 9.28H235.812L233.764 18.88C233.658 19.3493 233.604 19.7227 233.604 20C233.604 20.768 233.978 21.152 234.724 21.152C235.108 21.152 235.386 21.12 235.556 21.056C235.13 22.2933 234.628 23.1253 234.052 23.552C233.476 23.9787 232.847 24.192 232.164 24.192Z" fill="white"/>
</svg>
