<svg width="16" height="16" viewBox="0 0 16 16" fill="none" xmlns="http://www.w3.org/2000/svg">
<path d="M2.90921 6.54539H13.0909C13.2879 6.54539 13.4584 6.47346 13.6022 6.3295C13.746 6.18558 13.8182 6.01515 13.8182 5.81818C13.8182 5.6212 13.7461 5.45085 13.6022 5.30673L8.51139 0.215882C8.36755 0.0721198 8.19716 0 8.00006 0C7.80297 0 7.63258 0.0721198 7.48862 0.215882L2.39777 5.30673C2.25381 5.45069 2.18188 5.6212 2.18188 5.81818C2.18188 6.01511 2.25381 6.18558 2.39777 6.3295C2.54189 6.47346 2.71228 6.54539 2.90921 6.54539Z" fill="#A4B4CB"/>
<path d="M13.0909 9.45483H2.90921C2.71212 9.45483 2.54173 9.52679 2.39777 9.6706C2.25381 9.81456 2.18188 9.98495 2.18188 10.1819C2.18188 10.3789 2.25381 10.5494 2.39777 10.6933L7.48862 15.7841C7.63274 15.928 7.80313 16.0001 8.00006 16.0001C8.197 16.0001 8.36755 15.928 8.51139 15.7841L13.6022 10.6932C13.746 10.5494 13.8182 10.3789 13.8182 10.1819C13.8182 9.98495 13.7461 9.81456 13.6022 9.67056C13.4584 9.52664 13.2879 9.45483 13.0909 9.45483Z" fill="#A4B4CB"/>
</svg>
