<svg width="24" height="24" viewBox="0 0 24 24" fill="none" xmlns="http://www.w3.org/2000/svg">
<g id="paintbucket" clip-path="url(#clip0_5532_15246)">
<path id="Vector" d="M3.7706 15.5605L7.2306 19.0205C9.6606 21.4505 10.4906 21.4105 12.8906 19.0205L18.4606 13.4505C20.4006 11.5105 20.8906 10.2205 18.4606 7.79045L15.0006 4.33045C12.4106 1.74045 11.2806 2.39045 9.3406 4.33045L3.7706 9.90045C1.3806 12.3005 1.1806 12.9705 3.7706 15.5605Z" stroke="#FAFAFA" stroke-width="1.5" stroke-linecap="round" stroke-linejoin="round"/>
<path id="Vector_2" d="M19.1995 16.7895L18.5395 17.8795C17.6095 19.4295 18.3295 20.6995 20.1395 20.6995C21.9495 20.6995 22.6695 19.4295 21.7395 17.8795L21.0795 16.7895C20.5595 15.9295 19.7095 15.9295 19.1995 16.7895Z" stroke="#FAFAFA" stroke-width="1.5" stroke-linecap="round" stroke-linejoin="round"/>
<path id="Vector_3" d="M2 12.2408C7.56 10.7308 13.42 10.6808 19 12.1108L19.5 12.2408" stroke="#FAFAFA" stroke-width="1.5" stroke-linecap="round" stroke-linejoin="round"/>
</g>
<defs>
<clipPath id="clip0_5532_15246">
<rect width="24" height="24" fill="white"/>
</clipPath>
</defs>
</svg>
