<svg width="40" height="42" viewBox="0 0 40 42" fill="none" xmlns="http://www.w3.org/2000/svg">
<g id="Vector">
<path fill-rule="evenodd" clip-rule="evenodd" d="M8.28344 3.38294C5.73258 3.38294 3.66471 5.45082 3.66471 8.00166V34.0017C3.66471 36.5526 5.73259 38.6204 8.28344 38.6204H31.715C34.2659 38.6204 36.3337 36.5526 36.3337 34.0017V12.9584C36.3337 12.0251 37.0903 11.2686 38.0235 11.2686C38.9568 11.2686 39.7133 12.0251 39.7133 12.9584V34.0017C39.7133 38.4191 36.1324 42 31.715 42H8.28344C3.86611 42 0.285156 38.419 0.285156 34.0017V8.00166C0.285156 3.58433 3.86611 0.00338884 8.28344 0.00338884H26.7583C27.6916 0.00338884 28.4481 0.759928 28.4481 1.69317C28.4481 2.62641 27.6916 3.38294 26.7583 3.38294H8.28344Z" fill="#FDFDFD"/>
<path fill-rule="evenodd" clip-rule="evenodd" d="M25.0686 2.43313C25.0686 0.269793 27.6841 -0.813638 29.2139 0.71609L39.0006 10.5028C40.5303 12.0325 39.4469 14.6481 37.2836 14.6481H27.4968C26.1557 14.6481 25.0686 13.561 25.0686 12.2199V2.43313ZM28.4481 4.72976V11.2686H34.9869L28.4481 4.72976Z" fill="#FDFDFD"/>
<path fill-rule="evenodd" clip-rule="evenodd" d="M13.2401 29.2929C13.2401 28.3596 13.9967 27.6031 14.9299 27.6031H25.0686C26.0018 27.6031 26.7583 28.3596 26.7583 29.2929C26.7583 30.2261 26.0018 30.9826 25.0686 30.9826H14.9299C13.9967 30.9826 13.2401 30.2261 13.2401 29.2929Z" fill="#FDFDFD"/>
<path fill-rule="evenodd" clip-rule="evenodd" d="M10.9871 22.5338C10.9871 21.6005 11.7436 20.844 12.6769 20.844H27.3216C28.2548 20.844 29.0114 21.6005 29.0114 22.5338C29.0114 23.467 28.2548 24.2235 27.3216 24.2235H12.6769C11.7436 24.2235 10.9871 23.467 10.9871 22.5338Z" fill="#FDFDFD"/>
</g>
</svg>
