<svg width="31" height="30" viewBox="0 0 31 30" fill="none" xmlns="http://www.w3.org/2000/svg">
<g id="vuesax/linear/shopping-cart">
<g id="shopping-cart">
<path id="Vector" d="M3.38867 2.5H5.56167C6.91042 2.5 7.97193 3.6625 7.85953 5L6.82299 17.45C6.64815 19.4875 8.25915 21.2375 10.3073 21.2375H23.6075C25.4058 21.2375 26.9793 19.7625 27.1167 17.975L27.7911 8.60001C27.9409 6.52501 26.3674 4.83749 24.2818 4.83749H8.15926" stroke="white" stroke-width="2" stroke-miterlimit="10" stroke-linecap="round" stroke-linejoin="round"/>
<path id="Vector_2" d="M21.1841 27.5C22.0462 27.5 22.7452 26.8004 22.7452 25.9375C22.7452 25.0746 22.0462 24.375 21.1841 24.375C20.322 24.375 19.623 25.0746 19.623 25.9375C19.623 26.8004 20.322 27.5 21.1841 27.5Z" stroke="white" stroke-width="2" stroke-miterlimit="10" stroke-linecap="round" stroke-linejoin="round"/>
<path id="Vector_3" d="M11.1939 27.5C12.056 27.5 12.7549 26.8004 12.7549 25.9375C12.7549 25.0746 12.056 24.375 11.1939 24.375C10.3317 24.375 9.63281 25.0746 9.63281 25.9375C9.63281 26.8004 10.3317 27.5 11.1939 27.5Z" stroke="white" stroke-width="2" stroke-miterlimit="10" stroke-linecap="round" stroke-linejoin="round"/>
<path id="Vector_4" d="M12.1309 10H27.117" stroke="white" stroke-width="2" stroke-miterlimit="10" stroke-linecap="round" stroke-linejoin="round"/>
</g>
</g>
</svg>
