<svg width="42" height="40" viewBox="0 0 42 40" fill="none" xmlns="http://www.w3.org/2000/svg">
<g id="Vector">
<path fill-rule="evenodd" clip-rule="evenodd" d="M32.3124 14.6745C32.9206 15.2295 32.9639 16.1724 32.409 16.7807L26.9687 22.744C26.6793 23.0613 26.2671 23.2383 25.8378 23.2298C25.4084 23.2213 25.0036 23.028 24.727 22.6996L22.2161 19.7179C21.6857 19.0881 21.7664 18.1476 22.3962 17.6172C23.026 17.0869 23.9665 17.1675 24.4968 17.7973L25.9122 19.4781L30.2062 14.7712C30.7611 14.1629 31.7041 14.1196 32.3124 14.6745Z" fill="#1CC555"/>
<path fill-rule="evenodd" clip-rule="evenodd" d="M1.98778 13.7881C1.98778 12.9648 2.65525 12.2973 3.47862 12.2973L5.4664 12.2973C6.28976 12.2973 6.95723 12.9648 6.95723 13.7881C6.95723 14.6115 6.28976 15.279 5.4664 15.279L3.47862 15.279C2.65525 15.279 1.98778 14.6115 1.98778 13.7881Z" fill="#1CC555"/>
<path fill-rule="evenodd" clip-rule="evenodd" d="M3.97556 25.7148C3.97556 24.8914 4.64303 24.224 5.4664 24.224H7.45418C8.27754 24.224 8.94501 24.8914 8.94501 25.7148C8.94501 26.5382 8.27754 27.2057 7.45418 27.2057H5.4664C4.64303 27.2057 3.97556 26.5382 3.97556 25.7148Z" fill="#1CC555"/>
<path fill-rule="evenodd" clip-rule="evenodd" d="M0 19.7515C0 18.9281 0.66747 18.2606 1.49084 18.2606H7.45418C8.27754 18.2606 8.94501 18.9281 8.94501 19.7515C8.94501 20.5748 8.27754 21.2423 7.45418 21.2423H1.49084C0.66747 21.2423 0 20.5748 0 19.7515Z" fill="#1CC555"/>
<path fill-rule="evenodd" clip-rule="evenodd" d="M0 1.86144C0 1.03808 0.66747 0.370605 1.49084 0.370605H6.78459C8.80243 0.370605 10.5704 1.72176 11.1002 3.6688L12.0958 7.32784H37.5257C40.3888 7.32784 42.5146 9.98062 41.8907 12.7749L38.5621 27.6833C38.1057 29.7275 36.2917 31.1812 34.1971 31.1812H18.0058C15.9112 31.1812 14.0972 29.7275 13.6408 27.6833L9.50893 9.17702L8.22312 4.45168C8.04652 3.80266 7.4572 3.35228 6.78459 3.35228H1.49084C0.66747 3.35228 0 2.68481 0 1.86144ZM12.8169 10.3095L16.5508 27.0336C16.703 27.715 17.3076 28.1995 18.0058 28.1995H34.1971C34.8953 28.1995 35.5 27.715 35.6521 27.0336L38.9807 12.1252C39.1886 11.1938 38.48 10.3095 37.5257 10.3095H12.8169Z" fill="#1CC555"/>
<path d="M23.3564 36.6476C23.3564 38.2943 22.0215 39.6293 20.3748 39.6293C18.728 39.6293 17.3931 38.2943 17.3931 36.6476C17.3931 35.0009 18.728 33.6659 20.3748 33.6659C22.0215 33.6659 23.3564 35.0009 23.3564 36.6476Z" fill="#1CC555"/>
<path d="M35.2831 36.6476C35.2831 38.2943 33.9482 39.6293 32.3014 39.6293C30.6547 39.6293 29.3198 38.2943 29.3198 36.6476C29.3198 35.0009 30.6547 33.6659 32.3014 33.6659C33.9482 33.6659 35.2831 35.0009 35.2831 36.6476Z" fill="#1CC555"/>
</g>
</svg>
