<svg width="124" height="19" viewBox="0 0 124 19" fill="none" xmlns="http://www.w3.org/2000/svg">
<path d="M104.522 8.33899C104.6 8.094 104.75 7.87822 104.952 7.71981C105.155 7.56139 105.4 7.46769 105.657 7.45093L110.297 7.12622L112.018 2.79211C112.111 2.5525 112.274 2.34662 112.487 2.20144C112.699 2.05626 112.95 1.97856 113.207 1.97852H113.208C113.465 1.97897 113.715 2.05687 113.927 2.20203C114.139 2.34719 114.302 2.55285 114.395 2.79211L116.141 7.15124L120.756 7.45093C121.012 7.46769 121.258 7.56139 121.46 7.71981C121.663 7.87822 121.813 8.094 121.891 8.33899C121.973 8.58745 121.979 8.85495 121.907 9.10664C121.835 9.35833 121.689 9.58256 121.488 9.75012L117.938 12.7506L118.994 16.9041C119.067 17.1838 119.054 17.4791 118.956 17.7511C118.858 18.0231 118.68 18.2593 118.446 18.4287C118.22 18.5933 117.949 18.6859 117.67 18.6946C117.39 18.7033 117.115 18.6277 116.879 18.4775L113.217 16.1576C113.212 16.1539 113.207 16.1515 113.196 16.1576L109.255 18.6539C109.041 18.7906 108.791 18.8595 108.538 18.8517C108.284 18.8439 108.038 18.7596 107.833 18.61C107.621 18.4566 107.46 18.2426 107.371 17.9962C107.283 17.7497 107.271 17.4822 107.336 17.2288L108.458 12.6914L104.924 9.75012C104.723 9.58256 104.577 9.35833 104.505 9.10664C104.434 8.85495 104.439 8.58745 104.522 8.33899Z" fill="#F9B009"/>
<path d="M78.5215 8.33899C78.5995 8.094 78.7496 7.87822 78.9521 7.71981C79.1546 7.56139 79.4002 7.46769 79.6568 7.45093L84.2967 7.12622L86.0178 2.79211C86.111 2.5525 86.2743 2.34662 86.4865 2.20144C86.6987 2.05626 86.9497 1.97856 87.2068 1.97852H87.208C87.4647 1.97897 87.7153 2.05687 87.927 2.20203C88.1387 2.34719 88.3016 2.55285 88.3946 2.79211L90.1414 7.15124L94.7556 7.45093C95.0122 7.46769 95.2578 7.56139 95.4603 7.71981C95.6628 7.87822 95.8129 8.094 95.8909 8.33899C95.9732 8.58745 95.9788 8.85495 95.907 9.10664C95.8351 9.35833 95.6891 9.58256 95.4881 9.75012L91.9383 12.7506L92.9942 16.9041C93.0669 17.1838 93.0536 17.4791 92.9558 17.7511C92.858 18.0231 92.6803 18.2593 92.4461 18.4287C92.2199 18.5933 91.9495 18.6859 91.6699 18.6946C91.3904 18.7033 91.1147 18.6277 90.8787 18.4775L87.2166 16.1576C87.2117 16.1539 87.2068 16.1515 87.1958 16.1576L83.2554 18.6539C83.0415 18.7906 82.7913 18.8595 82.5375 18.8517C82.2838 18.8439 82.0384 18.7596 81.8333 18.61C81.621 18.4566 81.46 18.2426 81.3714 17.9962C81.2827 17.7497 81.2706 17.4822 81.3365 17.2288L82.4583 12.6914L78.9243 9.75012C78.7233 9.58256 78.5773 9.35833 78.5054 9.10664C78.4336 8.85495 78.4392 8.58745 78.5215 8.33899Z" fill="#F9B009"/>
<path d="M52.5215 8.33899C52.5995 8.094 52.7496 7.87822 52.9521 7.71981C53.1546 7.56139 53.4002 7.46769 53.6568 7.45093L58.2967 7.12622L60.0178 2.79211C60.111 2.5525 60.2743 2.34662 60.4865 2.20144C60.6987 2.05626 60.9497 1.97856 61.2068 1.97852H61.208C61.4647 1.97897 61.7153 2.05687 61.927 2.20203C62.1387 2.34719 62.3016 2.55285 62.3946 2.79211L64.1414 7.15124L68.7556 7.45093C69.0122 7.46769 69.2578 7.56139 69.4603 7.71981C69.6628 7.87822 69.8129 8.094 69.8909 8.33899C69.9732 8.58745 69.9788 8.85495 69.907 9.10664C69.8351 9.35833 69.6891 9.58256 69.4881 9.75012L65.9383 12.7506L66.9942 16.9041C67.0669 17.1838 67.0536 17.4791 66.9558 17.7511C66.858 18.0231 66.6803 18.2593 66.4461 18.4287C66.2199 18.5933 65.9495 18.6859 65.6699 18.6946C65.3904 18.7033 65.1147 18.6277 64.8787 18.4775L61.2166 16.1576C61.2117 16.1539 61.2068 16.1515 61.1958 16.1576L57.2554 18.6539C57.0415 18.7906 56.7913 18.8595 56.5375 18.8517C56.2838 18.8439 56.0384 18.7596 55.8333 18.61C55.621 18.4566 55.46 18.2426 55.3714 17.9962C55.2827 17.7497 55.2706 17.4822 55.3365 17.2288L56.4583 12.6914L52.9243 9.75012C52.7233 9.58256 52.5773 9.35833 52.5054 9.10664C52.4336 8.85495 52.4392 8.58745 52.5215 8.33899Z" fill="#F9B009"/>
<path d="M26.5215 8.33899C26.5995 8.094 26.7496 7.87822 26.9521 7.71981C27.1546 7.56139 27.4002 7.46769 27.6568 7.45093L32.2967 7.12622L34.0178 2.79211C34.111 2.5525 34.2743 2.34662 34.4865 2.20144C34.6987 2.05626 34.9497 1.97856 35.2068 1.97852H35.208C35.4647 1.97897 35.7153 2.05687 35.927 2.20203C36.1387 2.34719 36.3016 2.55285 36.3946 2.79211L38.1414 7.15124L42.7556 7.45093C43.0122 7.46769 43.2578 7.56139 43.4603 7.71981C43.6628 7.87822 43.8129 8.094 43.8909 8.33899C43.9732 8.58745 43.9788 8.85495 43.907 9.10664C43.8351 9.35833 43.6891 9.58256 43.4881 9.75012L39.9383 12.7506L40.9942 16.9041C41.0669 17.1838 41.0536 17.4791 40.9558 17.7511C40.858 18.0231 40.6803 18.2593 40.4461 18.4287C40.2199 18.5933 39.9495 18.6859 39.6699 18.6946C39.3904 18.7033 39.1147 18.6277 38.8787 18.4775L35.2166 16.1576C35.2117 16.1539 35.2068 16.1515 35.1958 16.1576L31.2554 18.6539C31.0415 18.7906 30.7913 18.8595 30.5375 18.8517C30.2838 18.8439 30.0384 18.7596 29.8333 18.61C29.621 18.4566 29.46 18.2426 29.3714 17.9962C29.2827 17.7497 29.2706 17.4822 29.3365 17.2288L30.4583 12.6914L26.9243 9.75012C26.7233 9.58256 26.5773 9.35833 26.5054 9.10664C26.4336 8.85495 26.4392 8.58745 26.5215 8.33899Z" fill="#F9B009"/>
<path d="M0.925428 9.7502L1.6065 10.3171C1.73391 10.4231 1.89819 10.4741 2.06323 10.459C2.22828 10.4439 2.38056 10.3639 2.48659 10.2365C2.59262 10.1091 2.64372 9.94483 2.62865 9.77978C2.61358 9.61474 2.53357 9.46243 2.40622 9.35637L1.72514 8.78951C1.71563 8.78237 1.70895 8.7721 1.70628 8.76051C1.70362 8.74892 1.70513 8.73676 1.71057 8.72618C1.71942 8.69902 1.72873 8.69841 1.73765 8.69788L2.63975 8.63936C2.80517 8.62864 2.95955 8.55264 3.06893 8.42809C3.17832 8.30354 3.23374 8.14064 3.22302 7.97522C3.2123 7.80981 3.1363 7.65543 3.01175 7.54604C2.8872 7.43666 2.7243 7.38123 2.55888 7.39196L1.6567 7.45047C1.40011 7.4673 1.15455 7.56113 0.952118 7.7197C0.749683 7.87827 0.599777 8.0942 0.521986 8.3393C0.439503 8.58777 0.433882 8.85533 0.505857 9.10704C0.577833 9.35875 0.724058 9.5829 0.925428 9.7502ZM5.68609 13.0582L5.42715 14.0766C5.38615 14.2371 5.28313 14.3747 5.1407 14.4593C4.99828 14.5439 4.82811 14.5684 4.66758 14.5276C4.50706 14.4868 4.3693 14.3839 4.28458 14.2416C4.19986 14.0992 4.17511 13.9291 4.21576 13.7685L4.47462 12.7503C4.47753 12.7399 4.4776 12.729 4.47484 12.7186C4.47207 12.7082 4.46657 12.6987 4.45891 12.6912L3.67514 12.0389C3.54792 11.9328 3.46803 11.7805 3.453 11.6156C3.43798 11.4506 3.48905 11.2864 3.59501 11.1591C3.70096 11.0318 3.85313 10.9517 4.01807 10.9365C4.18302 10.9213 4.34726 10.9722 4.4747 11.078L5.25847 11.7303C5.44725 11.8892 5.58748 12.098 5.66311 12.3328C5.73874 12.5677 5.7467 12.8191 5.68609 13.0582ZM4.66154 7.88184C4.65081 7.71643 4.70622 7.55352 4.81559 7.42896C4.92496 7.3044 5.07932 7.22838 5.24473 7.21762L6.27104 7.15102C6.27718 7.14953 6.28281 7.14642 6.28734 7.14202C6.29188 7.13762 6.29515 7.13209 6.29683 7.12599L8.01786 2.79227C8.11083 2.55262 8.27407 2.34668 8.48617 2.20146C8.69826 2.05624 8.9493 1.97852 9.20635 1.97852C9.46339 1.97851 9.71444 2.0562 9.92654 2.20141C10.1386 2.34662 10.3019 2.55255 10.3949 2.79219L12.1159 7.12615C12.1176 7.1322 12.1209 7.13769 12.1254 7.14206C12.1299 7.14643 12.1355 7.14952 12.1416 7.15102L16.7561 7.45047C17.0127 7.4673 17.2582 7.56113 17.4607 7.7197C17.6631 7.87827 17.813 8.09421 17.8908 8.3393C17.9732 8.58777 17.9789 8.85533 17.9069 9.10705C17.8349 9.35876 17.6887 9.5829 17.4873 9.7502L13.9538 12.6912C13.9462 12.6987 13.9407 12.7082 13.9379 12.7186C13.9351 12.7289 13.9352 12.7399 13.938 12.7502L14.9938 16.9033C15.0668 17.1829 15.0536 17.4781 14.9561 17.7502C14.8585 18.0222 14.6811 18.2585 14.447 18.428C14.2209 18.5933 13.9502 18.6864 13.6703 18.6952C13.3903 18.704 13.1143 18.6281 12.8782 18.4774L9.21652 16.1574C9.21354 16.1554 9.21003 16.1542 9.20641 16.1542H9.20622C9.20265 16.1543 9.19918 16.1554 9.19622 16.1574L8.29649 16.7275C8.15647 16.8162 7.98694 16.8457 7.82521 16.8094C7.66347 16.7731 7.52277 16.6741 7.43406 16.534C7.34536 16.394 7.31591 16.2245 7.35219 16.0627C7.38848 15.901 7.48752 15.7603 7.62755 15.6716L8.52728 15.1015C8.54498 15.0903 8.56322 15.0802 8.58137 15.07V4.7601L7.45863 7.58727C7.36926 7.81294 7.218 8.0088 7.02223 8.1523C6.82647 8.2958 6.59417 8.38112 6.35206 8.39842L5.32576 8.46503C5.16037 8.47567 4.99751 8.42022 4.87298 8.31087C4.74844 8.20153 4.67239 8.04722 4.66154 7.88184ZM3.55299 16.3759C3.59399 16.2155 3.69702 16.0778 3.83944 15.9933C3.98186 15.9087 4.15203 15.8841 4.31256 15.9249C4.47309 15.9658 4.61084 16.0686 4.69556 16.211C4.78028 16.3533 4.80504 16.5235 4.76439 16.684L4.54764 17.5365C4.54454 17.544 4.5433 17.5521 4.54402 17.5602C4.54473 17.5683 4.54739 17.5761 4.55175 17.5829C4.55785 17.5917 4.56606 17.5989 4.57563 17.6037C4.57966 17.6023 4.58349 17.6004 4.587 17.5979L5.35467 17.1117C5.49469 17.0229 5.66422 16.9935 5.82596 17.0298C5.98769 17.0661 6.12839 17.1651 6.2171 17.3051C6.30581 17.4452 6.33526 17.6147 6.29897 17.7764C6.26269 17.9382 6.16364 18.0789 6.02362 18.1676L5.25602 18.6539C5.04172 18.7907 4.79111 18.8596 4.53699 18.8516C4.28287 18.8436 4.03707 18.7591 3.83177 18.6091C3.61975 18.4557 3.45902 18.2417 3.3706 17.9954C3.28219 17.749 3.27021 17.4817 3.33624 17.2285L3.55299 16.3759Z" fill="#F9B009"/>
</svg>
