<svg width="42" height="42" viewBox="0 0 42 42" fill="none" xmlns="http://www.w3.org/2000/svg">
<g id="Vector">
<path fill-rule="evenodd" clip-rule="evenodd" d="M7.8 8.4C5.4804 8.4 3.6 10.2804 3.6 12.6V19.8H0V12.6C0 8.29218 3.49218 4.8 7.8 4.8H12.3V8.4H7.8ZM29.4 8.4H27V4.8H29.4C33.7078 4.8 37.2 8.29218 37.2 12.6V13.2H33.6V12.6C33.6 10.2804 31.7196 8.4 29.4 8.4Z" fill="#FDFDFD"/>
<path fill-rule="evenodd" clip-rule="evenodd" d="M13.8973 3.6L10.7075 13.1692C10.3932 14.1123 9.37379 14.622 8.43069 14.3076C7.48759 13.9933 6.97791 12.9739 7.29227 12.0308L10.6188 2.05132C11.0271 0.826287 12.1735 0 13.4648 0H26.609C28.6022 0 30.0412 1.90771 29.4936 3.82416L27.5199 10.7321L26.3075 14.3692C25.9932 15.3123 24.9738 15.822 24.0307 15.5076C23.0876 15.1933 22.5779 14.1739 22.8923 13.2308L24.0799 9.66788L25.8136 3.6H13.8973Z" fill="#FDFDFD"/>
<path fill-rule="evenodd" clip-rule="evenodd" d="M0 20.52C0 15.8145 3.81453 12 8.52 12H33.48C38.1855 12 42 15.8145 42 20.52V33.48C42 38.1855 38.1855 42 33.48 42H8.52C3.81454 42 0 38.1855 0 33.48V20.52ZM33.48 38.4C36.1972 38.4 38.4 36.1972 38.4 33.48V20.52C38.4 17.8028 36.1972 15.6 33.48 15.6H8.52C5.80276 15.6 3.6 17.8028 3.6 20.52V33.48C3.6 36.1972 5.80276 38.4 8.52 38.4H33.48Z" fill="#FDFDFD"/>
<path fill-rule="evenodd" clip-rule="evenodd" d="M0 21.6H7.8C10.7823 21.6 13.2 24.0177 13.2 27C13.2 29.9823 10.7823 32.4 7.8 32.4H0V21.6ZM3.6 25.2V28.8H7.8C8.79411 28.8 9.6 27.9941 9.6 27C9.6 26.0059 8.79411 25.2 7.8 25.2H3.6Z" fill="#FDFDFD"/>
</g>
</svg>
